<?xml version="1.0" standalone="no"?>
<!DOCTYPE svg PUBLIC "-//W3C//DTD SVG 20010904//EN"
 "http://www.w3.org/TR/2001/REC-SVG-20010904/DTD/svg10.dtd">
<svg version="1.0" xmlns="http://www.w3.org/2000/svg"
 width="512.000000pt" height="512.000000pt" viewBox="0 0 512.000000 512.000000"
 preserveAspectRatio="xMidYMid meet">

<g transform="translate(0.000000,512.000000) scale(0.100000,-0.100000)"
fill="#000000" stroke="none">
<path d="M1030 1915 c-80 -16 -176 -54 -244 -97 -70 -45 -171 -142 -218 -210
l-39 -58 -264 0 -265 0 0 -175 0 -175 332 -2 333 -3 7 -60 c22 -200 183 -383
378 -429 178 -42 348 4 475 129 92 90 138 183 154 310 l6 50 990 0 990 0 7
-68 c18 -186 184 -373 374 -421 271 -69 548 97 619 371 8 31 15 72 15 90 l0
33 220 0 220 0 0 174 0 173 -61 7 c-34 3 -103 6 -154 6 l-92 0 -36 54 c-75
113 -193 208 -330 264 -104 43 -179 55 -309 50 -132 -6 -235 -35 -337 -95 -75
-44 -193 -157 -236 -224 l-29 -47 -230 -7 c-127 -3 -514 -5 -860 -3 l-630 3
-37 54 c-169 243 -463 363 -749 306z m259 -549 c49 -34 91 -113 91 -170 -1
-106 -100 -206 -205 -206 -43 0 -98 23 -135 56 -107 97 -86 264 40 332 63 33
150 28 209 -12z m2993 4 c111 -74 127 -223 34 -316 -70 -71 -170 -81 -252 -28
-138 90 -121 292 31 361 47 21 142 12 187 -17z"/>
</g>
</svg>
